# xmcd
#
# Track frame offsets:
#	150
#	14078
#	26777
#	46658
#	59353
#	69174
#	82242
#	92033
#	101803
#	112158
#	123178
#	133360
#	145297
#	158982
#	172996
#	182974
#	194500
#	203286
#	218109
#	231165
#	244583
#
# Disc length: 3397 seconds
#
# Revision: 0
# Processed by: cddbd v1.5.2PL0 Copyright (c) Steve Scherf et al.
# Submitted via: EasyCDDAExtractor 11.5.3.1
#
DISCID=340d4315
DTITLE=Slim Harpo - I'm a King Bee 1957-1961
DYEAR=2015
DGENRE=blues
TTITLE0=I'm a King Bee
TTITLE1=I Got Love if You Want it
TTITLE2=This Ain't No Place for Me
TTITLE3=One of These Days
TTITLE4=That Ain't Your Business
TTITLE5=Things Gonna Change
TTITLE6=Wonderin' And Worryin'
TTITLE7=Strange Love
TTITLE8=You'll Be Sorry One Day
TTITLE9=One More Day
TTITLE10=Buzz Me Babe
TTITLE11=Late Last Night
TTITLE12=What a Dream
TTITLE13=Blues Hangover
TTITLE14=Don't Start Cryin' Now
TTITLE15=Rainin' In My Heart
TTITLE16=Bobby Sox Baby
TTITLE17=Dream Girl
TTITLE18=My Home is a Prison
TTITLE19=Moody Blues
TTITLE20=Snoopin' Around
EXTD=
EXTT0=
EXTT1=
EXTT2=
EXTT3=
EXTT4=
EXTT5=
EXTT6=
EXTT7=
EXTT8=
EXTT9=
EXTT10=
EXTT11=
EXTT12=
EXTT13=
EXTT14=
EXTT15=
EXTT16=
EXTT17=
EXTT18=
EXTT19=
EXTT20=
PLAYORDER=
